<mxfile host="app.diagrams.net" modified="2023-06-05T02:54:02.778Z" agent="Mozilla/5.0 (Windows NT 10.0; Win64; x64) AppleWebKit/537.36 (KHTML, like Gecko) Chrome/114.0.0.0 Safari/537.36" version="21.3.7" etag="GujnmOVcGs-q7jSxcfaA" type="github">
  <diagram name="Page-1" id="-abNNqmlILF2k0_fRJw-">
    <mxGraphModel>
      <root>
        <mxCell id="0" />
        <mxCell id="1" parent="0" />
      </root>
    </mxGraphModel>
  </diagram>
</mxfile>
